<?xml version="1.0" encoding="iso-8859-1"?>
<!-- Generator: Adobe Illustrator 19.0.0, SVG Export Plug-In . SVG Version: 6.00 Build 0)  -->
<svg version="1.1" id="Capa_1" xmlns="http://www.w3.org/2000/svg" xmlns:xlink="http://www.w3.org/1999/xlink" x="0px" y="0px"
	 viewBox="0 0 496.016 496.016" style="enable-background:new 0 0 496.016 496.016;" xml:space="preserve">
<g>
	<circle style="fill:#FFA64D;" cx="248.004" cy="144.008" r="144"/>
	<rect x="8.004" y="424.008" style="fill:#FFA64D;" width="480" height="64"/>
</g>
<g>
	<path style="fill:#333333;" d="M468.004,384.008h-8.2c3.64-3,7.016-6.384,10.08-10.136c17.592-21.528,26.856-48.856,26.088-76.952
		l-1.848-66.168l-64,9.664c-18.392,2.784-35.56,10.168-50.336,21.416l-19.288-49.2l-56.584,30.912
		c-4.584,2.512-8.912,5.448-13.104,8.576l-42.808-48.152l-42.8,48.152c-4.184-3.128-8.512-6.064-13.112-8.576l-56.584-30.912
		l-19.28,49.2c-14.768-11.256-31.936-18.632-50.336-21.416l-64-9.664l-1.848,66.176c-0.768,28.088,8.496,55.416,26.088,76.944
		c3.064,3.752,6.44,7.136,10.08,10.136h-8.208l-28,37.336v74.664h496v-74.664L468.004,384.008z M367.148,380.664
		c0.76,0.712,1.44,1.536,2.224,2.216c0.464,0.4,0.96,0.744,1.44,1.136H363.3C364.62,382.928,365.908,381.832,367.148,380.664z
		 M311.58,257.592l40.648-22.208l17.064,43.52c5.96,15.208,8.008,31.832,5.904,48.072l15.872,2.048
		c2.232-17.312,0.232-34.952-5.432-51.424c13.456-11.368,29.528-18.752,46.864-21.36l46.128-6.976l1.336,48.104
		c0.672,24.248-7.312,47.832-22.48,66.384c-9.512,11.648-22.856,18.768-37.576,20.056c-14.632,1.232-28.84-3.36-40.104-13.064
		c-0.832-0.72-1.56-1.576-2.36-2.352c3.168-4.776,5.856-9.928,7.856-15.472c0.8-2.2,1.512-4.424,2.168-6.664l-15.36-4.496
		c-0.56,1.912-1.168,3.824-1.864,5.736c-5.04,14.016-15.176,25.176-28.552,31.416c-13.176,6.152-27.968,6.776-41.608,1.744
		c-0.712-0.264-1.36-0.664-2.064-0.96c13.528-13.104,21.984-31.416,21.984-51.688c0-22.696-6.888-44.632-19.448-63.232
		C304.084,262.152,307.732,259.696,311.58,257.592z M248.004,228.048l31.448,35.376c15.832,17.808,24.552,40.752,24.552,64.584
		c0,30.872-25.128,56-56,56s-56-25.128-56-56c0-23.832,8.72-46.776,24.552-64.584L248.004,228.048z M143.78,235.384l40.648,22.2
		c3.856,2.112,7.496,4.576,11.024,7.184c-12.56,18.608-19.448,40.544-19.448,63.24c0,20.272,8.456,38.584,21.984,51.68
		c-0.704,0.288-1.36,0.696-2.072,0.96c-13.656,5.032-28.424,4.4-41.6-1.744c-13.376-6.232-23.512-17.4-28.552-31.424
		c-8-22.224-7.664-46.576,0.952-68.576L143.78,235.384z M16.044,297.376l1.336-48.112l46.128,6.976
		c17.304,2.608,33.36,9.968,46.792,21.304c-8.416,24.416-8.368,50.976,0.4,75.352c1.992,5.528,4.664,10.664,7.816,15.424
		c-0.808,0.784-1.48,1.696-2.328,2.424c-11.224,9.688-25.352,14.288-40.088,13.056c-14.72-1.288-28.064-8.408-37.576-20.056
		C23.356,345.192,15.372,321.616,16.044,297.376z M126.628,382.872c0.792-0.688,1.52-1.448,2.28-2.16
		c1.216,1.152,2.496,2.232,3.8,3.296h-7.52C125.668,383.624,126.164,383.28,126.628,382.872z M16.004,480.008v-48h416v-16h-408
		l12-16h44.704c0.056,0,0.12,0.008,0.176,0.008s0.12-0.008,0.176-0.008h95.824c0.096,0,0.192,0.016,0.288,0.016
		c0.12,0,0.232-0.016,0.352-0.016h140.96c0.12,0,0.232,0.016,0.352,0.016c0.096,0,0.192-0.016,0.288-0.016h95.824
		c0.056,0,0.12,0.008,0.176,0.008s0.112-0.008,0.176-0.008h44.704l12,16h-24v16h32v48H16.004z"/>
	<rect x="240.004" y="448.008" style="fill:#333333;" width="16" height="16"/>
	<rect x="328.004" y="448.008" style="fill:#333333;" width="16" height="16"/>
	<rect x="416.004" y="448.008" style="fill:#333333;" width="16" height="16"/>
	<rect x="64.004" y="448.008" style="fill:#333333;" width="16" height="16"/>
	<rect x="152.004" y="448.008" style="fill:#333333;" width="16" height="16"/>
	<path style="fill:#333333;" d="M184.004,216.008c30.872,0,56-21.528,56-48c0-9.264-3.304-18.2-9.064-25.888l1.352-0.448
		c13.408-4.472,25.16-12.656,33.96-23.68c11.192-13.968,27.864-21.984,45.752-21.984c22.056,0,40,21.528,40,48s-17.944,48-40,48
		s-40-21.528-40-48h-16c0,35.288,25.128,64,56,64s56-28.712,56-64s-25.128-64-56-64c-22.776,0-44,10.2-58.24,27.992
		c-4.168,5.208-9.248,9.488-14.872,12.928c0.664-2.904,1.112-5.864,1.112-8.92c0-22.056-17.944-40-40-40s-40,17.944-40,40h16
		c0-13.232,10.768-24,24-24s24,10.768,24,24c0,8.224-4.208,15.8-11.256,20.248l-9.544,6.04l8.856,7
		c7.704,6.096,11.944,14.16,11.944,22.712c0,17.648-17.944,32-40,32s-40-14.352-40-32h-16
		C128.004,194.48,153.132,216.008,184.004,216.008z"/>
	<path style="fill:#333333;" d="M248.004,72.008c23.12,0,48-7.504,48-24l-15.928-0.432c-1.08,2.4-12.2,8.432-32.072,8.432
		s-30.992-6.032-32-8h-16C200.004,64.504,224.884,72.008,248.004,72.008z"/>
	<path style="fill:#333333;" d="M248.004,48.008c13.232,0,24-10.768,24-24s-10.768-24-24-24c-13.232,0-24,10.768-24,24
		S234.772,48.008,248.004,48.008z M248.004,16.008c4.416,0,8,3.584,8,8s-3.584,8-8,8s-8-3.584-8-8S243.588,16.008,248.004,16.008z"
		/>
</g>
<g>
</g>
<g>
</g>
<g>
</g>
<g>
</g>
<g>
</g>
<g>
</g>
<g>
</g>
<g>
</g>
<g>
</g>
<g>
</g>
<g>
</g>
<g>
</g>
<g>
</g>
<g>
</g>
<g>
</g>
</svg>
